<svg xmlns="http://www.w3.org/2000/svg" xmlns:xlink="http://www.w3.org/1999/xlink"><defs>
  <style type="text/css">
   <![CDATA[
    .str1 {stroke:#75CF5F;stroke-width:0.9;stroke-miterlimit:22.9256}
    .str0 {stroke:#AF803A;stroke-width:0.9;stroke-miterlimit:22.9256}
    .fil1 {fill:#75CF5F;fill-rule:nonzero}
    .fil0 {fill:#997038;fill-rule:nonzero}
   ]]>
  </style>
 
  <style type="text/css">
   <![CDATA[
    .str1 {stroke:#75CF5F;stroke-width:0.9;stroke-miterlimit:22.9256}
    .str0 {stroke:#AF803A;stroke-width:0.9;stroke-miterlimit:22.9256}
    .fil1 {fill:#75CF5F;fill-rule:nonzero}
    .fil0 {fill:#997038;fill-rule:nonzero}
   ]]>
  </style>
 
  <style type="text/css">
   <![CDATA[
    .fil1 {fill:#FF78B2}
    .fil0 {fill:white}
   ]]>
  </style>
 
  <style type="text/css">
   <![CDATA[
    .fil0 {fill:#0087CB}
    .fil3 {fill:#B1C8DB}
    .fil2 {fill:#CCD9E9}
    .fil1 {fill:#FCFDFE}
   ]]>
  </style>
 
  <style type="text/css">
   <![CDATA[
    .fil0 {fill:#00A500}
    .fil1 {fill:white}
   ]]>
  </style>
 </defs><symbol id="symbols" viewBox="0 0 330 97">
 <symbol id="logo-main" viewBox="0 0 330 97">
 
 <g id="&#x421;&#x43B;&#x43E;&#x439;_x0020_1">
  <metadata id="CorelCorpID_0Corel-Layer"/>
  <g id="_2008468112592">
   <path fill="#997038" stroke="#AF803A" stroke-width="0.9" stroke-miterlimit="22.9256" d="M0.31 59.59l0 -19.79 10.91 0c1.75,0 3.11,0.47 4.1,1.41 0.98,0.94 1.47,2.16 1.47,3.66 0,1.2 -0.32,2.18 -0.96,2.94 -0.64,0.76 -1.39,1.28 -2.24,1.56 0.5,0.13 0.96,0.35 1.4,0.65 0.44,0.3 0.82,0.67 1.15,1.11 0.32,0.44 0.58,0.92 0.77,1.44 0.2,0.52 0.29,1.06 0.29,1.64 0,1.61 -0.5,2.91 -1.51,3.9 -1.02,0.98 -2.44,1.48 -4.27,1.48l-11.11 0zm10.5 -2.75c0.98,0 1.76,-0.27 2.33,-0.79 0.58,-0.53 0.86,-1.27 0.86,-2.22 0,-0.78 -0.27,-1.5 -0.82,-2.12 -0.54,-0.62 -1.33,-0.93 -2.37,-0.93l-7.42 0 0 6.06 7.42 0zm-0.13 -8.81c0.96,0 1.69,-0.25 2.2,-0.76 0.5,-0.51 0.75,-1.16 0.75,-1.94 0,-0.86 -0.25,-1.54 -0.75,-2.04 -0.51,-0.5 -1.24,-0.74 -2.2,-0.74l-7.29 0 0 5.48 7.29 0zm24.72 11.56l0 -2.26c-1.66,1.83 -3.85,2.75 -6.56,2.75 -0.84,0 -1.68,-0.14 -2.5,-0.41 -0.82,-0.28 -1.55,-0.69 -2.21,-1.25 -0.66,-0.56 -1.19,-1.25 -1.6,-2.07 -0.41,-0.82 -0.61,-1.76 -0.61,-2.83 0,-1.09 0.2,-2.05 0.61,-2.86 0.41,-0.82 0.94,-1.51 1.6,-2.05 0.66,-0.55 1.39,-0.95 2.21,-1.21 0.82,-0.26 1.66,-0.39 2.5,-0.39 1.37,0 2.61,0.22 3.71,0.66 1.11,0.43 2.06,1.12 2.85,2.04l0 -3.56c0,-1.34 -0.47,-2.37 -1.41,-3.09 -0.94,-0.73 -2.14,-1.09 -3.59,-1.09 -2.32,0 -4.34,0.92 -6.06,2.75l-1.44 -2.13c2.1,-2.19 4.74,-3.28 7.91,-3.28 1.04,0 2.02,0.12 2.95,0.37 0.93,0.24 1.75,0.63 2.44,1.16 0.7,0.54 1.26,1.23 1.66,2.07 0.41,0.85 0.62,1.88 0.62,3.08l0 13.6 -3.08 0zm-5.45 -1.73c1.1,0 2.13,-0.2 3.1,-0.61 0.97,-0.41 1.75,-1.02 2.35,-1.84l0 -3.73c-0.6,-0.82 -1.38,-1.43 -2.35,-1.84 -0.97,-0.41 -2,-0.62 -3.1,-0.62 -1.45,0 -2.62,0.41 -3.52,1.21 -0.91,0.81 -1.36,1.85 -1.36,3.13 0,1.26 0.45,2.29 1.36,3.1 0.9,0.8 2.07,1.2 3.52,1.2zm40.63 -18.06l0 19.79 -25.95 0 0 -19.79 3.07 0 0 17.04 8.37 0 0 -17.04 3.07 0 0 17.04 8.37 0 0 -17.04 3.07 0zm130.74 17.25c0.47,-0.09 0.89,-0.25 1.26,-0.5 0.36,-0.24 0.71,-0.64 1.02,-1.18 0.31,-0.55 0.59,-1.29 0.84,-2.22 0.25,-0.92 0.47,-2.13 0.66,-3.6l1.27 -9.75 13.77 0 0 17.04 2.3 0 0 7.78 -3.08 0 0 -5.03 -14.96 0 0 5.03 -3.08 0 0 -7.57zm6.85 -7.13c-0.24,1.87 -0.61,3.35 -1.08,4.44 -0.48,1.08 -1.08,1.91 -1.79,2.48l11.77 0 0 -14.29 -8 0 -0.9 7.37zm27.14 10.16c-1.5,0 -2.86,-0.28 -4.08,-0.82 -1.21,-0.55 -2.25,-1.29 -3.09,-2.24 -0.85,-0.94 -1.5,-2.04 -1.95,-3.29 -0.45,-1.26 -0.68,-2.61 -0.68,-4.06 0,-1.42 0.23,-2.76 0.68,-4.03 0.45,-1.27 1.1,-2.37 1.95,-3.3 0.84,-0.93 1.88,-1.67 3.09,-2.21 1.22,-0.55 2.58,-0.82 4.08,-0.82 1.5,0 2.87,0.27 4.08,0.82 1.22,0.54 2.25,1.28 3.1,2.21 0.84,0.93 1.49,2.03 1.94,3.3 0.46,1.27 0.68,2.61 0.68,4.03 0,1.45 -0.22,2.8 -0.68,4.06 -0.45,1.25 -1.1,2.35 -1.94,3.29 -0.85,0.95 -1.88,1.69 -3.1,2.24 -1.21,0.54 -2.58,0.82 -4.08,0.82zm0 -2.75c1.07,0 2,-0.21 2.81,-0.63 0.81,-0.43 1.49,-0.99 2.05,-1.68 0.56,-0.7 0.98,-1.51 1.27,-2.44 0.29,-0.93 0.43,-1.9 0.43,-2.91 0,-1.01 -0.14,-1.97 -0.43,-2.89 -0.29,-0.91 -0.71,-1.72 -1.27,-2.41 -0.56,-0.7 -1.24,-1.26 -2.05,-1.68 -0.81,-0.42 -1.74,-0.64 -2.81,-0.64 -1.06,0 -2.01,0.22 -2.83,0.64 -0.82,0.42 -1.51,0.98 -2.07,1.68 -0.56,0.69 -0.98,1.5 -1.27,2.41 -0.28,0.92 -0.43,1.88 -0.43,2.89 0,1.01 0.15,1.98 0.43,2.91 0.29,0.93 0.71,1.74 1.27,2.44 0.56,0.69 1.25,1.25 2.07,1.68 0.82,0.42 1.77,0.63 2.83,0.63zm28.29 2.26l-7.13 -8.89 -3.28 3.23 0 5.66 -3.08 0 0 -19.79 3.08 0 0 10.53 10.41 -10.53 3.9 0 -8.78 8.97 8.82 10.82 -3.94 0zm11.19 0l0 -17.04 -5.74 0 0 -2.75 14.6 0 0 2.75 -5.78 0 0 17.04 -3.08 0zm21.53 0.49c-1.51,0 -2.87,-0.28 -4.08,-0.82 -1.22,-0.55 -2.25,-1.29 -3.1,-2.24 -0.84,-0.94 -1.49,-2.04 -1.95,-3.29 -0.45,-1.26 -0.67,-2.61 -0.67,-4.06 0,-1.42 0.22,-2.76 0.67,-4.03 0.46,-1.27 1.11,-2.37 1.95,-3.3 0.85,-0.93 1.88,-1.67 3.1,-2.21 1.21,-0.55 2.57,-0.82 4.08,-0.82 1.5,0 2.86,0.27 4.08,0.82 1.21,0.54 2.24,1.28 3.09,2.21 0.85,0.93 1.5,2.03 1.95,3.3 0.45,1.27 0.68,2.61 0.68,4.03 0,1.45 -0.23,2.8 -0.68,4.06 -0.45,1.25 -1.1,2.35 -1.95,3.29 -0.85,0.95 -1.88,1.69 -3.09,2.24 -1.22,0.54 -2.58,0.82 -4.08,0.82zm0 -2.75c1.06,0 2,-0.21 2.8,-0.63 0.81,-0.43 1.49,-0.99 2.05,-1.68 0.57,-0.7 0.99,-1.51 1.28,-2.44 0.28,-0.93 0.43,-1.9 0.43,-2.91 0,-1.01 -0.15,-1.97 -0.43,-2.89 -0.29,-0.91 -0.71,-1.72 -1.28,-2.41 -0.56,-0.7 -1.24,-1.26 -2.05,-1.68 -0.8,-0.42 -1.74,-0.64 -2.8,-0.64 -1.07,0 -2.01,0.22 -2.83,0.64 -0.82,0.42 -1.51,0.98 -2.07,1.68 -0.56,0.69 -0.99,1.5 -1.27,2.41 -0.29,0.92 -0.43,1.88 -0.43,2.89 0,1.01 0.14,1.98 0.43,2.91 0.28,0.93 0.71,1.74 1.27,2.44 0.56,0.69 1.25,1.25 2.07,1.68 0.82,0.42 1.76,0.63 2.83,0.63zm24.55 2.75c-1.36,0 -2.62,-0.3 -3.77,-0.9 -1.15,-0.6 -2.12,-1.47 -2.91,-2.59l0 10.53 -3.07 0 0 -27.32 3.07 0 0 2.95c0.71,-1.01 1.66,-1.84 2.83,-2.48 1.18,-0.64 2.46,-0.96 3.85,-0.96 1.32,0 2.51,0.24 3.59,0.72 1.08,0.47 2.01,1.16 2.79,2.04 0.78,0.89 1.38,1.98 1.8,3.26 0.43,1.28 0.64,2.73 0.64,4.34 0,1.61 -0.21,3.06 -0.64,4.34 -0.42,1.29 -1.02,2.38 -1.8,3.28 -0.78,0.9 -1.71,1.59 -2.79,2.07 -1.08,0.48 -2.27,0.72 -3.59,0.72zm-0.77 -2.75c0.98,0 1.87,-0.19 2.66,-0.57 0.79,-0.38 1.46,-0.92 2.01,-1.6 0.55,-0.68 0.96,-1.49 1.25,-2.44 0.29,-0.94 0.43,-1.96 0.43,-3.05 0,-1.09 -0.14,-2.1 -0.43,-3.03 -0.29,-0.93 -0.7,-1.73 -1.25,-2.41 -0.55,-0.69 -1.22,-1.22 -2.01,-1.6 -0.79,-0.39 -1.68,-0.58 -2.66,-0.58 -1.23,0 -2.39,0.31 -3.47,0.93 -1.08,0.61 -1.89,1.35 -2.44,2.23l0 8.93c0.55,0.87 1.36,1.62 2.44,2.25 1.08,0.63 2.24,0.94 3.47,0.94z"/>
   <path fill="#75CF5F" stroke="#75CF5F" stroke-width="0.9" stroke-miterlimit="22.9256" d="M112.9 48.19c-0.07,0.17 -0.25,0.5 -0.52,0.99 -0.26,0.49 -0.62,1.06 -1.04,1.72 -0.43,0.65 -0.93,1.35 -1.52,2.07 -0.59,0.74 -1.23,1.42 -1.92,2.04 -0.7,0.62 -1.44,1.13 -2.25,1.54 -0.79,0.4 -1.62,0.6 -2.48,0.6 -1.38,0 -2.56,-0.24 -3.53,-0.75 -0.96,-0.49 -1.76,-1.05 -2.4,-1.68 -0.43,0.93 -0.95,1.78 -1.56,2.55 -0.62,0.77 -1.3,1.44 -2.05,2.01 -0.75,0.56 -1.55,1.01 -2.38,1.32 -0.85,0.32 -1.71,0.48 -2.58,0.48 -1.64,0 -3.02,-0.48 -4.17,-1.43 -1.15,-0.97 -2.11,-2.25 -2.87,-3.86 -0.77,-1.62 -1.35,-3.49 -1.78,-5.62 -0.43,-2.13 -0.76,-4.37 -0.98,-6.7 -0.23,-2.35 -0.37,-4.73 -0.42,-7.11 -0.06,-2.41 -0.09,-4.69 -0.09,-6.85 0,-4.12 0.13,-7.7 0.36,-10.71 0.24,-3.03 0.57,-5.6 0.98,-7.72 0.41,-2.11 0.89,-3.83 1.44,-5.16 0.55,-1.31 1.12,-2.33 1.73,-3.07 0.6,-0.74 1.23,-1.23 1.88,-1.5 0.62,-0.26 1.25,-0.4 1.87,-0.4 0.98,0 1.84,0.29 2.61,0.87 0.75,0.59 1.39,1.41 1.91,2.46 0.52,1.05 0.9,2.34 1.18,3.83 0.26,1.48 0.39,3.12 0.39,4.91 0,2.86 -0.3,5.79 -0.91,8.84 -0.62,3.03 -1.41,6.06 -2.4,9.08 -0.96,3.03 -2.06,5.99 -3.25,8.91 -1.2,2.92 -2.39,5.68 -3.56,8.29 0.16,1.31 0.39,2.55 0.72,3.74 0.31,1.19 0.72,2.24 1.23,3.15 0.51,0.92 1.11,1.66 1.8,2.2 0.7,0.55 1.51,0.82 2.41,0.82 0.9,0 1.76,-0.26 2.56,-0.78 0.8,-0.52 1.5,-1.2 2.1,-2.03 0.6,-0.83 1.08,-1.79 1.42,-2.85 0.34,-1.07 0.51,-2.16 0.51,-3.27 0,-0.75 -0.07,-1.5 -0.22,-2.25 -0.15,-0.77 -0.38,-1.45 -0.7,-2.04 -0.3,-0.6 -0.68,-1.09 -1.15,-1.46 -0.45,-0.36 -1.01,-0.56 -1.65,-0.56 -0.49,0 -0.86,0.1 -1.13,0.3 -0.28,0.21 -0.47,0.43 -0.61,0.69 -0.13,0.24 -0.22,0.5 -0.24,0.73 -0.03,0.25 -0.04,0.4 -0.04,0.48 0,0.38 0.08,0.75 0.24,1.12 0.15,0.38 0.47,0.71 0.92,1.01 0.45,0.32 0.68,0.75 0.68,1.33 0,0.45 -0.16,0.8 -0.46,1.07 -0.3,0.26 -0.65,0.4 -1.03,0.4 -0.53,0 -1,-0.16 -1.41,-0.48 -0.42,-0.32 -0.76,-0.73 -1.06,-1.22 -0.29,-0.5 -0.52,-1.03 -0.67,-1.59 -0.17,-0.56 -0.25,-1.09 -0.25,-1.57 0,-0.78 0.14,-1.49 0.4,-2.14 0.27,-0.66 0.64,-1.22 1.12,-1.7 0.46,-0.46 1,-0.82 1.61,-1.07 0.6,-0.26 1.23,-0.39 1.92,-0.39 1.14,0 2.14,0.28 2.99,0.81 0.85,0.53 1.56,1.24 2.12,2.12 0.56,0.88 0.98,1.88 1.25,3 0.26,1.12 0.4,2.25 0.4,3.4 0,0.67 -0.03,1.32 -0.08,1.96 0.11,0.22 0.28,0.5 0.52,0.85 0.24,0.34 0.56,0.68 0.95,1 0.41,0.31 0.89,0.6 1.45,0.84 0.56,0.24 1.22,0.36 1.96,0.36 0.64,0 1.31,-0.25 1.98,-0.74 0.68,-0.49 1.34,-1.1 1.97,-1.84 0.62,-0.74 1.2,-1.52 1.73,-2.36 0.55,-0.84 0.99,-1.63 1.33,-2.34 0.13,-0.27 0.33,-0.48 0.56,-0.63 0.24,-0.13 0.5,-0.21 0.8,-0.21 0.46,0 0.82,0.16 1.1,0.47 0.28,0.33 0.42,0.69 0.42,1.1 0,0.15 -0.05,0.36 -0.16,0.62zm-31.09 -5.16c0.91,-2.24 1.83,-4.59 2.77,-7.04 0.93,-2.47 1.78,-4.99 2.53,-7.54 0.75,-2.57 1.37,-5.15 1.84,-7.76 0.48,-2.62 0.73,-5.18 0.73,-7.71 0,-0.97 -0.04,-1.97 -0.14,-3.02 -0.09,-1.05 -0.26,-2.02 -0.5,-2.91 -0.24,-0.87 -0.56,-1.61 -0.99,-2.19 -0.41,-0.59 -0.93,-0.88 -1.57,-0.88 -0.22,0 -0.49,0.14 -0.82,0.43 -0.34,0.27 -0.68,0.76 -1.06,1.47 -0.37,0.71 -0.74,1.69 -1.13,2.94 -0.36,1.25 -0.71,2.85 -1.01,4.77 -0.31,1.94 -0.56,4.26 -0.76,6.98 -0.21,2.72 -0.3,5.91 -0.3,9.6 0,1.22 0.01,2.47 0.04,3.73 0.03,1.27 0.05,2.47 0.09,3.62 0.03,1.14 0.07,2.19 0.13,3.15 0.05,0.97 0.09,1.75 0.15,2.36zm59.23 5.07c-0.11,0.22 -0.33,0.65 -0.67,1.34 -0.33,0.68 -0.76,1.46 -1.28,2.34 -0.51,0.88 -1.13,1.79 -1.83,2.76 -0.68,0.96 -1.46,1.83 -2.32,2.64 -0.85,0.8 -1.78,1.46 -2.76,1.98 -0.98,0.52 -2.02,0.78 -3.12,0.78 -1.55,0 -2.85,-0.5 -3.9,-1.49 -1.06,-0.99 -1.82,-2.23 -2.3,-3.72 -0.9,1.52 -1.98,2.72 -3.24,3.62 -1.24,0.89 -2.5,1.34 -3.76,1.34 -0.98,0 -1.87,-0.18 -2.66,-0.55 -0.81,-0.35 -1.49,-0.86 -2.04,-1.51 -0.56,-0.66 -1,-1.42 -1.3,-2.3 -0.31,-0.88 -0.46,-1.84 -0.46,-2.88 0,-2.07 0.35,-3.9 1.05,-5.48 0.71,-1.6 1.61,-2.93 2.71,-3.99 1.09,-1.07 2.29,-1.86 3.62,-2.39 1.32,-0.53 2.6,-0.81 3.82,-0.81 0.83,0 1.59,0.11 2.29,0.34 0.68,0.24 1.28,0.48 1.77,0.76 0.5,0.27 0.88,0.51 1.15,0.75 0.26,0.21 0.41,0.35 0.44,0.38 0.29,0.34 0.44,0.71 0.44,1.09 0,0.4 -0.15,0.75 -0.44,1.05 -0.3,0.32 -0.64,0.47 -1.04,0.47 -0.44,0 -0.79,-0.15 -1.09,-0.44 -0.04,-0.06 -0.17,-0.16 -0.36,-0.3 -0.19,-0.15 -0.44,-0.3 -0.76,-0.47 -0.32,-0.16 -0.7,-0.3 -1.14,-0.42 -0.43,-0.12 -0.94,-0.18 -1.5,-0.18 -0.82,0 -1.71,0.2 -2.64,0.56 -0.94,0.37 -1.79,0.96 -2.57,1.74 -0.76,0.79 -1.42,1.77 -1.94,2.95 -0.52,1.18 -0.78,2.59 -0.78,4.22 0,0.5 0.06,1.01 0.17,1.53 0.09,0.51 0.28,0.99 0.56,1.42 0.26,0.42 0.61,0.76 1.08,1.03 0.45,0.26 1.01,0.4 1.66,0.4 0.48,0 1.04,-0.16 1.67,-0.48 0.62,-0.33 1.22,-0.82 1.79,-1.49 0.58,-0.65 1.09,-1.5 1.56,-2.51 0.46,-1.01 0.79,-2.21 0.98,-3.6 0.06,-0.37 0.22,-0.69 0.52,-0.95 0.29,-0.24 0.64,-0.38 1.04,-0.38 0.37,0 0.7,0.15 0.97,0.45 0.29,0.29 0.44,0.63 0.47,1 0.02,0.5 0.08,1.21 0.16,2.14 0.08,0.92 0.26,1.83 0.53,2.73 0.29,0.92 0.71,1.7 1.27,2.37 0.56,0.66 1.33,1.01 2.33,1.01 0.63,0 1.27,-0.18 1.9,-0.54 0.63,-0.34 1.24,-0.8 1.83,-1.38 0.6,-0.57 1.17,-1.21 1.72,-1.95 0.55,-0.74 1.05,-1.47 1.5,-2.22 0.45,-0.74 0.86,-1.47 1.21,-2.16 0.35,-0.7 0.64,-1.3 0.88,-1.8 0.13,-0.29 0.33,-0.52 0.58,-0.69 0.26,-0.15 0.53,-0.23 0.82,-0.23 0.45,0 0.82,0.17 1.1,0.49 0.28,0.34 0.43,0.7 0.43,1.07 0,0.19 -0.04,0.37 -0.12,0.56zm31.09 0.09c-0.07,0.17 -0.25,0.5 -0.52,0.99 -0.26,0.49 -0.62,1.06 -1.04,1.72 -0.43,0.65 -0.93,1.35 -1.52,2.07 -0.59,0.74 -1.23,1.42 -1.93,2.04 -0.69,0.62 -1.43,1.13 -2.24,1.54 -0.79,0.4 -1.62,0.6 -2.48,0.6 -1.39,0 -2.56,-0.24 -3.53,-0.75 -0.96,-0.49 -1.76,-1.05 -2.41,-1.68 -0.42,0.93 -0.94,1.78 -1.55,2.55 -0.62,0.77 -1.3,1.44 -2.05,2.01 -0.76,0.56 -1.55,1.01 -2.38,1.32 -0.85,0.32 -1.71,0.48 -2.58,0.48 -1.64,0 -3.02,-0.48 -4.17,-1.43 -1.15,-0.97 -2.11,-2.25 -2.87,-3.86 -0.77,-1.62 -1.36,-3.49 -1.78,-5.62 -0.44,-2.13 -0.76,-4.37 -0.98,-6.7 -0.23,-2.35 -0.37,-4.73 -0.43,-7.11 -0.05,-2.41 -0.08,-4.69 -0.08,-6.85 0,-4.12 0.13,-7.7 0.36,-10.71 0.24,-3.03 0.57,-5.6 0.98,-7.72 0.41,-2.11 0.89,-3.83 1.44,-5.16 0.54,-1.31 1.12,-2.33 1.73,-3.07 0.6,-0.74 1.23,-1.23 1.87,-1.5 0.63,-0.26 1.26,-0.4 1.88,-0.4 0.98,0 1.84,0.29 2.61,0.87 0.75,0.59 1.39,1.41 1.91,2.46 0.52,1.05 0.9,2.34 1.17,3.83 0.26,1.48 0.4,3.12 0.4,4.91 0,2.86 -0.3,5.79 -0.92,8.84 -0.61,3.03 -1.4,6.06 -2.39,9.08 -0.97,3.03 -2.06,5.99 -3.25,8.91 -1.2,2.92 -2.39,5.68 -3.57,8.29 0.17,1.31 0.4,2.55 0.73,3.74 0.31,1.19 0.72,2.24 1.23,3.15 0.51,0.92 1.11,1.66 1.8,2.2 0.7,0.55 1.51,0.82 2.41,0.82 0.9,0 1.76,-0.26 2.55,-0.78 0.81,-0.52 1.51,-1.2 2.11,-2.03 0.6,-0.83 1.08,-1.79 1.42,-2.85 0.34,-1.07 0.5,-2.16 0.5,-3.27 0,-0.75 -0.06,-1.5 -0.21,-2.25 -0.15,-0.77 -0.39,-1.45 -0.7,-2.04 -0.3,-0.6 -0.68,-1.09 -1.15,-1.46 -0.45,-0.36 -1.01,-0.56 -1.65,-0.56 -0.49,0 -0.86,0.1 -1.14,0.3 -0.27,0.21 -0.46,0.43 -0.6,0.69 -0.14,0.24 -0.22,0.5 -0.24,0.73 -0.03,0.25 -0.05,0.4 -0.05,0.48 0,0.38 0.09,0.75 0.25,1.12 0.15,0.38 0.46,0.71 0.92,1.01 0.45,0.32 0.68,0.75 0.68,1.33 0,0.45 -0.16,0.8 -0.46,1.07 -0.31,0.26 -0.65,0.4 -1.03,0.4 -0.53,0 -1,-0.16 -1.41,-0.48 -0.42,-0.32 -0.76,-0.73 -1.06,-1.22 -0.29,-0.5 -0.52,-1.03 -0.67,-1.59 -0.17,-0.56 -0.25,-1.09 -0.25,-1.57 0,-0.78 0.14,-1.49 0.4,-2.14 0.27,-0.66 0.64,-1.22 1.12,-1.7 0.46,-0.46 1,-0.82 1.61,-1.07 0.6,-0.26 1.23,-0.39 1.91,-0.39 1.15,0 2.15,0.28 3,0.81 0.84,0.53 1.55,1.24 2.11,2.12 0.57,0.88 0.99,1.88 1.26,3 0.26,1.12 0.4,2.25 0.4,3.4 0,0.67 -0.03,1.32 -0.08,1.96 0.11,0.22 0.28,0.5 0.52,0.85 0.24,0.34 0.56,0.68 0.95,1 0.41,0.31 0.89,0.6 1.45,0.84 0.56,0.24 1.22,0.36 1.96,0.36 0.64,0 1.31,-0.25 1.98,-0.74 0.68,-0.49 1.34,-1.1 1.97,-1.84 0.62,-0.74 1.2,-1.52 1.73,-2.36 0.55,-0.84 0.98,-1.63 1.33,-2.34 0.13,-0.27 0.32,-0.48 0.56,-0.63 0.24,-0.13 0.5,-0.21 0.8,-0.21 0.45,0 0.82,0.16 1.1,0.47 0.28,0.33 0.42,0.69 0.42,1.1 0,0.15 -0.06,0.36 -0.16,0.62zm-31.09 -5.16c0.91,-2.24 1.83,-4.59 2.77,-7.04 0.93,-2.47 1.78,-4.99 2.53,-7.54 0.75,-2.57 1.36,-5.15 1.84,-7.76 0.48,-2.62 0.73,-5.18 0.73,-7.71 0,-0.97 -0.04,-1.97 -0.14,-3.02 -0.1,-1.05 -0.26,-2.02 -0.51,-2.91 -0.23,-0.87 -0.56,-1.61 -0.98,-2.19 -0.41,-0.59 -0.93,-0.88 -1.57,-0.88 -0.22,0 -0.49,0.14 -0.82,0.43 -0.34,0.27 -0.68,0.76 -1.07,1.47 -0.37,0.71 -0.73,1.69 -1.12,2.94 -0.37,1.25 -0.71,2.85 -1.01,4.77 -0.31,1.94 -0.56,4.26 -0.76,6.98 -0.21,2.72 -0.3,5.91 -0.3,9.6 0,1.22 0.01,2.47 0.04,3.73 0.02,1.27 0.05,2.47 0.09,3.62 0.03,1.14 0.07,2.19 0.13,3.15 0.05,0.97 0.09,1.75 0.15,2.36zm43.17 16.82c0.93,-0.92 1.88,-1.88 2.84,-2.85 0.96,-0.98 1.9,-1.99 2.8,-3.07 0.9,-1.07 1.75,-2.17 2.54,-3.33 0.79,-1.16 1.49,-2.39 2.11,-3.7 0.13,-0.3 0.31,-0.52 0.56,-0.67 0.24,-0.14 0.5,-0.22 0.79,-0.22 0.46,0 0.83,0.16 1.11,0.49 0.28,0.31 0.42,0.67 0.42,1.08 0,0.2 -0.04,0.41 -0.12,0.6 -0.84,1.73 -1.78,3.32 -2.85,4.75 -1.06,1.45 -2.18,2.81 -3.36,4.11 -1.17,1.29 -2.36,2.54 -3.56,3.76 -1.21,1.21 -2.35,2.43 -3.45,3.66 -0.11,1.84 -0.11,3.68 0,5.53 0.11,1.85 0.17,3.82 0.17,5.91 0,1.69 -0.06,3.4 -0.17,5.1 -0.09,1.71 -0.27,3.35 -0.5,4.91 -0.24,1.57 -0.56,3.01 -0.97,4.38 -0.41,1.36 -0.93,2.54 -1.56,3.54 -0.64,0.99 -1.38,1.78 -2.24,2.36 -0.85,0.57 -1.86,0.86 -3.01,0.86 -1.89,0 -3.35,-0.66 -4.36,-1.97 -1.01,-1.3 -1.52,-3.13 -1.52,-5.47 0,-1.29 0.14,-2.65 0.41,-4.11 0.29,-1.48 0.69,-2.99 1.19,-4.55 0.51,-1.56 1.11,-3.14 1.82,-4.74 0.71,-1.6 1.48,-3.15 2.31,-4.68 0.82,-1.52 1.71,-2.96 2.64,-4.33 0.93,-1.38 1.88,-2.62 2.84,-3.74 0.04,-1.28 0.1,-2.61 0.15,-3.99 0.06,-1.36 0.11,-2.63 0.18,-3.81 -0.69,1.2 -1.55,2.19 -2.57,2.92 -1.03,0.74 -2.15,1.11 -3.36,1.11 -2.03,0 -3.6,-0.68 -4.75,-2.03 -1.13,-1.36 -1.7,-3.23 -1.7,-5.59 0,-1.73 0.16,-3.3 0.49,-4.72 0.34,-1.42 0.7,-2.65 1.08,-3.68 0.38,-1.02 0.74,-1.8 1.07,-2.34 0.31,-0.55 0.47,-0.81 0.47,-0.78 0.29,-0.45 0.7,-0.69 1.23,-0.69 0.45,0 0.82,0.15 1.11,0.47 0.27,0.3 0.41,0.65 0.41,1.05 0,0.29 -0.07,0.56 -0.23,0.79 0.02,-0.02 -0.11,0.19 -0.38,0.66 -0.29,0.46 -0.59,1.13 -0.92,2 -0.34,0.88 -0.64,1.93 -0.93,3.16 -0.27,1.21 -0.42,2.55 -0.42,4.01 0,1.46 0.27,2.6 0.8,3.43 0.54,0.82 1.41,1.23 2.61,1.23 1.52,0 2.9,-1.13 4.13,-3.39 1.23,-2.25 2.27,-5.51 3.12,-9.81 0.05,-0.35 0.21,-0.63 0.49,-0.86 0.26,-0.22 0.59,-0.35 0.95,-0.35 0.4,0 0.76,0.15 1.04,0.46 0.3,0.28 0.44,0.64 0.44,1.07 0,0.07 -0.04,0.55 -0.15,1.42 -0.11,0.86 -0.23,2.02 -0.38,3.46 -0.15,1.43 -0.3,3.11 -0.47,5.02 -0.15,1.9 -0.28,3.96 -0.39,6.17zm-3.2 8.44c-1.19,1.74 -2.28,3.57 -3.28,5.49 -1,1.91 -1.86,3.82 -2.57,5.72 -0.71,1.89 -1.27,3.7 -1.67,5.44 -0.39,1.73 -0.6,3.27 -0.6,4.64 0,1.38 0.23,2.47 0.68,3.26 0.45,0.78 1.17,1.18 2.15,1.18 0.87,0 1.65,-0.44 2.32,-1.3 0.69,-0.88 1.26,-2.1 1.72,-3.7 0.47,-1.6 0.81,-3.54 1.06,-5.82 0.23,-2.28 0.35,-4.83 0.35,-7.66 0,-1.14 -0.01,-2.3 -0.05,-3.48 -0.04,-1.17 -0.08,-2.43 -0.11,-3.77z"/>
  </g>
 </g>
</symbol>
 <symbol id="logo-course" viewBox="0 0 284 97">
   
 <g id="&#x421;&#x43B;&#x43E;&#x439;_x0020_1">
  <metadata id="CorelCorpID_0Corel-Layer"/>
  <g id="_2008615581072">
   <path fill="#997038" stroke="#AF803A" stroke-width="0.9" stroke-miterlimit="22.9256" d="M0.29 59.58l0 -19.77 10.89 0c1.74,0 3.11,0.47 4.09,1.41 0.98,0.94 1.47,2.16 1.47,3.65 0,1.2 -0.32,2.18 -0.96,2.94 -0.64,0.76 -1.38,1.28 -2.23,1.56 0.49,0.13 0.95,0.35 1.39,0.65 0.44,0.3 0.82,0.67 1.15,1.11 0.32,0.44 0.58,0.92 0.77,1.43 0.2,0.52 0.29,1.07 0.29,1.64 0,1.62 -0.5,2.91 -1.51,3.9 -1.01,0.98 -2.43,1.48 -4.26,1.48l-11.09 0zm10.48 -2.75c0.98,0 1.76,-0.26 2.33,-0.79 0.57,-0.53 0.86,-1.27 0.86,-2.21 0,-0.79 -0.27,-1.5 -0.82,-2.12 -0.55,-0.62 -1.34,-0.93 -2.37,-0.93l-7.41 0 0 6.05 7.41 0zm-0.13 -8.79c0.96,0 1.69,-0.26 2.19,-0.77 0.51,-0.51 0.76,-1.16 0.76,-1.94 0,-0.86 -0.25,-1.54 -0.76,-2.03 -0.5,-0.5 -1.23,-0.75 -2.19,-0.75l-7.28 0 0 5.49 7.28 0zm24.68 11.54l0 -2.26c-1.66,1.83 -3.85,2.75 -6.55,2.75 -0.84,0 -1.68,-0.14 -2.49,-0.41 -0.82,-0.28 -1.56,-0.69 -2.21,-1.25 -0.66,-0.56 -1.19,-1.25 -1.6,-2.07 -0.41,-0.82 -0.61,-1.76 -0.61,-2.82 0,-1.09 0.2,-2.05 0.61,-2.87 0.41,-0.81 0.94,-1.5 1.6,-2.04 0.65,-0.55 1.39,-0.95 2.21,-1.21 0.81,-0.26 1.65,-0.39 2.49,-0.39 1.37,0 2.6,0.22 3.71,0.66 1.1,0.43 2.05,1.12 2.84,2.04l0 -3.56c0,-1.33 -0.47,-2.36 -1.41,-3.09 -0.94,-0.72 -2.14,-1.08 -3.58,-1.08 -2.32,0 -4.34,0.91 -6.06,2.74l-1.43 -2.13c2.1,-2.18 4.73,-3.27 7.9,-3.27 1.03,0 2.01,0.12 2.94,0.37 0.93,0.24 1.74,0.63 2.44,1.16 0.69,0.54 1.25,1.22 1.65,2.07 0.41,0.85 0.62,1.87 0.62,3.07l0 13.59 -3.07 0zm-5.44 -1.72c1.09,0 2.12,-0.21 3.09,-0.62 0.96,-0.41 1.75,-1.02 2.35,-1.84l0 -3.72c-0.6,-0.82 -1.39,-1.43 -2.35,-1.84 -0.97,-0.41 -2,-0.62 -3.09,-0.62 -1.45,0 -2.62,0.4 -3.52,1.21 -0.9,0.8 -1.35,1.85 -1.35,3.13 0,1.26 0.45,2.28 1.35,3.09 0.9,0.8 2.07,1.21 3.52,1.21zm40.55 -18.05l0 19.77 -25.9 0 0 -19.77 3.07 0 0 17.02 8.34 0 0 -17.02 3.07 0 0 17.02 8.35 0 0 -17.02 3.07 0zm146.29 19.77l-7.12 -8.88 -3.27 3.23 0 5.65 -3.07 0 0 -19.77 3.07 0 0 10.52 10.39 -10.52 3.89 0 -8.76 8.96 8.8 10.81 -3.93 0zm6.96 4.95c0.22,0.11 0.49,0.19 0.82,0.24 0.32,0.06 0.61,0.08 0.86,0.08 0.68,0 1.25,-0.14 1.71,-0.43 0.47,-0.28 0.88,-0.84 1.23,-1.65l1.31 -2.99 -8.26 -19.97 3.31 0 6.59 16.21 6.55 -16.21 3.35 0 -9.9 23.77c-0.6,1.45 -1.39,2.47 -2.37,3.07 -0.99,0.6 -2.13,0.92 -3.44,0.95 -0.33,0 -0.71,-0.03 -1.15,-0.09 -0.43,-0.05 -0.8,-0.12 -1.1,-0.2l0.49 -2.78zm30.4 -4.46c-1.36,0 -2.62,-0.3 -3.76,-0.9 -1.15,-0.6 -2.12,-1.46 -2.91,-2.58l0 10.51 -3.07 0 0 -27.29 3.07 0 0 2.95c0.71,-1.01 1.65,-1.84 2.83,-2.48 1.17,-0.64 2.45,-0.96 3.84,-0.96 1.31,0 2.51,0.24 3.58,0.71 1.08,0.48 2.01,1.16 2.79,2.05 0.77,0.89 1.37,1.97 1.8,3.25 0.42,1.29 0.63,2.73 0.63,4.34 0,1.61 -0.21,3.06 -0.63,4.34 -0.43,1.28 -1.03,2.37 -1.8,3.27 -0.78,0.9 -1.71,1.59 -2.79,2.07 -1.07,0.48 -2.27,0.72 -3.58,0.72zm-0.77 -2.75c0.98,0 1.86,-0.19 2.66,-0.57 0.79,-0.38 1.45,-0.91 2,-1.59 0.55,-0.69 0.96,-1.5 1.25,-2.44 0.28,-0.94 0.43,-1.96 0.43,-3.05 0,-1.09 -0.15,-2.1 -0.43,-3.03 -0.29,-0.92 -0.7,-1.73 -1.25,-2.41 -0.55,-0.68 -1.21,-1.21 -2,-1.6 -0.8,-0.38 -1.68,-0.57 -2.66,-0.57 -1.23,0 -2.39,0.31 -3.46,0.92 -1.08,0.62 -1.89,1.36 -2.44,2.23l0 8.92c0.55,0.88 1.36,1.63 2.44,2.25 1.07,0.63 2.23,0.94 3.46,0.94zm23.16 2.75c-1.48,0 -2.82,-0.27 -4.04,-0.8 -1.21,-0.53 -2.25,-1.26 -3.1,-2.19 -0.86,-0.93 -1.53,-2.03 -2.01,-3.29 -0.48,-1.27 -0.72,-2.64 -0.72,-4.12 0,-1.47 0.24,-2.84 0.72,-4.09 0.48,-1.26 1.15,-2.35 2.01,-3.27 0.85,-0.93 1.89,-1.66 3.1,-2.19 1.22,-0.54 2.56,-0.8 4.04,-0.8 1.8,0 3.26,0.33 4.4,0.98 1.13,0.66 2.08,1.47 2.84,2.46l-2.05 1.88c-0.65,-0.9 -1.39,-1.56 -2.23,-1.97 -0.83,-0.4 -1.76,-0.61 -2.8,-0.61 -1.06,0 -2.01,0.19 -2.84,0.57 -0.84,0.39 -1.55,0.92 -2.15,1.6 -0.6,0.68 -1.06,1.49 -1.37,2.41 -0.32,0.93 -0.47,1.94 -0.47,3.03 0,1.09 0.15,2.11 0.47,3.05 0.31,0.94 0.77,1.75 1.37,2.44 0.6,0.68 1.31,1.21 2.15,1.59 0.83,0.38 1.78,0.57 2.84,0.57 2.07,0 3.75,-0.85 5.03,-2.57l2.05 1.88c-0.76,0.98 -1.71,1.8 -2.84,2.45 -1.14,0.66 -2.6,0.99 -4.4,0.99z"/>
   <path fill="#75CF5F" stroke="#75CF5F" stroke-width="0.9" stroke-miterlimit="22.9256" d="M112.67 48.2c-0.07,0.16 -0.25,0.49 -0.52,0.98 -0.26,0.49 -0.62,1.06 -1.04,1.72 -0.42,0.65 -0.93,1.35 -1.51,2.07 -0.59,0.74 -1.23,1.42 -1.93,2.03 -0.69,0.63 -1.43,1.13 -2.23,1.54 -0.79,0.4 -1.63,0.6 -2.49,0.6 -1.37,0 -2.55,-0.24 -3.51,-0.75 -0.96,-0.49 -1.76,-1.05 -2.4,-1.68 -0.43,0.93 -0.95,1.78 -1.56,2.56 -0.61,0.76 -1.3,1.43 -2.05,2 -0.75,0.56 -1.54,1.01 -2.37,1.32 -0.85,0.32 -1.7,0.48 -2.58,0.48 -1.63,0 -3.01,-0.48 -4.16,-1.43 -1.14,-0.97 -2.1,-2.25 -2.86,-3.86 -0.77,-1.61 -1.35,-3.48 -1.78,-5.61 -0.43,-2.12 -0.76,-4.36 -0.98,-6.69 -0.23,-2.35 -0.37,-4.72 -0.42,-7.11 -0.06,-2.4 -0.08,-4.68 -0.08,-6.84 0,-4.11 0.12,-7.69 0.35,-10.7 0.25,-3.03 0.57,-5.6 0.98,-7.71 0.41,-2.11 0.89,-3.83 1.44,-5.16 0.54,-1.31 1.11,-2.33 1.73,-3.07 0.6,-0.73 1.23,-1.22 1.87,-1.5 0.62,-0.25 1.25,-0.39 1.87,-0.39 0.98,0 1.84,0.29 2.6,0.87 0.75,0.59 1.39,1.41 1.91,2.46 0.52,1.05 0.9,2.33 1.17,3.82 0.26,1.48 0.4,3.12 0.4,4.91 0,2.85 -0.3,5.78 -0.91,8.82 -0.62,3.03 -1.41,6.06 -2.39,9.07 -0.97,3.03 -2.06,5.99 -3.25,8.91 -1.2,2.92 -2.38,5.68 -3.56,8.28 0.17,1.31 0.4,2.55 0.73,3.74 0.31,1.18 0.72,2.23 1.22,3.15 0.51,0.91 1.11,1.65 1.8,2.19 0.7,0.55 1.5,0.82 2.4,0.82 0.9,0 1.76,-0.26 2.55,-0.77 0.81,-0.52 1.51,-1.21 2.11,-2.04 0.6,-0.83 1.07,-1.78 1.41,-2.85 0.35,-1.06 0.51,-2.15 0.51,-3.26 0,-0.75 -0.07,-1.5 -0.22,-2.25 -0.15,-0.76 -0.38,-1.44 -0.7,-2.03 -0.3,-0.6 -0.68,-1.09 -1.14,-1.46 -0.45,-0.37 -1.01,-0.56 -1.65,-0.56 -0.49,0 -0.86,0.1 -1.13,0.3 -0.28,0.21 -0.47,0.42 -0.6,0.68 -0.14,0.25 -0.22,0.51 -0.25,0.74 -0.03,0.24 -0.04,0.39 -0.04,0.48 0,0.38 0.08,0.75 0.25,1.12 0.15,0.38 0.46,0.7 0.91,1 0.45,0.32 0.68,0.76 0.68,1.33 0,0.45 -0.16,0.8 -0.46,1.08 -0.3,0.25 -0.64,0.39 -1.03,0.39 -0.53,0 -0.99,-0.16 -1.4,-0.48 -0.42,-0.32 -0.76,-0.73 -1.06,-1.22 -0.29,-0.49 -0.52,-1.03 -0.67,-1.59 -0.17,-0.56 -0.25,-1.09 -0.25,-1.56 0,-0.78 0.14,-1.49 0.4,-2.15 0.27,-0.65 0.64,-1.21 1.12,-1.69 0.46,-0.46 0.99,-0.82 1.61,-1.08 0.6,-0.25 1.22,-0.38 1.91,-0.38 1.14,0 2.14,0.28 2.98,0.81 0.85,0.53 1.56,1.24 2.12,2.11 0.56,0.89 0.98,1.88 1.25,3 0.26,1.12 0.4,2.25 0.4,3.4 0,0.67 -0.03,1.32 -0.08,1.96 0.1,0.22 0.28,0.49 0.51,0.85 0.25,0.34 0.56,0.68 0.96,0.99 0.41,0.32 0.89,0.6 1.44,0.85 0.56,0.23 1.22,0.35 1.95,0.35 0.65,0 1.31,-0.24 1.98,-0.73 0.68,-0.49 1.34,-1.11 1.97,-1.84 0.62,-0.74 1.2,-1.52 1.73,-2.36 0.54,-0.83 0.98,-1.63 1.32,-2.34 0.14,-0.27 0.33,-0.47 0.56,-0.62 0.25,-0.14 0.51,-0.22 0.81,-0.22 0.45,0 0.81,0.16 1.09,0.48 0.28,0.32 0.42,0.68 0.42,1.09 0,0.15 -0.05,0.37 -0.16,0.63zm-31.04 -5.16c0.92,-2.24 1.83,-4.58 2.77,-7.04 0.93,-2.47 1.78,-4.98 2.53,-7.53 0.75,-2.56 1.36,-5.14 1.84,-7.75 0.48,-2.62 0.72,-5.18 0.72,-7.7 0,-0.97 -0.04,-1.97 -0.13,-3.02 -0.1,-1.05 -0.26,-2.02 -0.51,-2.9 -0.23,-0.88 -0.56,-1.61 -0.98,-2.2 -0.41,-0.59 -0.93,-0.87 -1.57,-0.87 -0.22,0 -0.49,0.13 -0.82,0.42 -0.34,0.27 -0.68,0.76 -1.06,1.47 -0.37,0.71 -0.74,1.69 -1.12,2.94 -0.37,1.25 -0.71,2.85 -1.01,4.77 -0.31,1.94 -0.56,4.26 -0.76,6.97 -0.21,2.72 -0.3,5.91 -0.3,9.59 0,1.21 0.01,2.47 0.04,3.72 0.02,1.27 0.05,2.47 0.09,3.62 0.03,1.14 0.07,2.19 0.12,3.15 0.06,0.97 0.1,1.75 0.15,2.36zm59.12 5.06c-0.11,0.22 -0.33,0.65 -0.67,1.34 -0.32,0.68 -0.75,1.46 -1.27,2.34 -0.51,0.88 -1.13,1.79 -1.82,2.76 -0.69,0.95 -1.46,1.82 -2.32,2.63 -0.85,0.8 -1.78,1.46 -2.76,1.98 -0.98,0.52 -2.02,0.77 -3.11,0.77 -1.55,0 -2.85,-0.49 -3.9,-1.48 -1.05,-0.98 -1.81,-2.23 -2.29,-3.71 -0.9,1.51 -1.98,2.71 -3.23,3.61 -1.24,0.89 -2.5,1.34 -3.75,1.34 -0.99,0 -1.87,-0.18 -2.66,-0.55 -0.81,-0.35 -1.49,-0.86 -2.04,-1.51 -0.56,-0.65 -0.99,-1.42 -1.29,-2.29 -0.32,-0.89 -0.47,-1.84 -0.47,-2.88 0,-2.07 0.36,-3.9 1.05,-5.48 0.71,-1.6 1.61,-2.92 2.71,-3.99 1.09,-1.06 2.29,-1.85 3.61,-2.38 1.32,-0.53 2.59,-0.81 3.82,-0.81 0.82,0 1.58,0.11 2.28,0.34 0.68,0.24 1.28,0.48 1.77,0.75 0.49,0.28 0.87,0.52 1.15,0.75 0.26,0.22 0.41,0.36 0.43,0.39 0.29,0.34 0.44,0.71 0.44,1.09 0,0.39 -0.15,0.75 -0.44,1.05 -0.3,0.31 -0.64,0.46 -1.03,0.46 -0.44,0 -0.79,-0.15 -1.09,-0.44 -0.05,-0.05 -0.17,-0.16 -0.36,-0.3 -0.19,-0.15 -0.44,-0.3 -0.76,-0.46 -0.32,-0.16 -0.7,-0.3 -1.14,-0.42 -0.43,-0.12 -0.94,-0.18 -1.5,-0.18 -0.81,0 -1.7,0.19 -2.63,0.56 -0.94,0.37 -1.79,0.95 -2.56,1.73 -0.77,0.79 -1.42,1.78 -1.94,2.95 -0.52,1.19 -0.78,2.59 -0.78,4.21 0,0.51 0.06,1.01 0.17,1.53 0.09,0.52 0.28,1 0.56,1.42 0.25,0.42 0.61,0.76 1.07,1.04 0.45,0.25 1.01,0.39 1.67,0.39 0.47,0 1.03,-0.16 1.66,-0.48 0.62,-0.32 1.22,-0.81 1.79,-1.48 0.57,-0.66 1.09,-1.5 1.55,-2.51 0.47,-1.01 0.79,-2.21 0.99,-3.6 0.05,-0.37 0.21,-0.68 0.51,-0.94 0.29,-0.25 0.65,-0.39 1.04,-0.39 0.37,0 0.7,0.15 0.97,0.45 0.29,0.29 0.44,0.63 0.46,1 0.03,0.5 0.08,1.21 0.17,2.14 0.08,0.92 0.26,1.83 0.53,2.73 0.29,0.91 0.71,1.69 1.27,2.36 0.56,0.67 1.32,1.01 2.32,1.01 0.62,0 1.26,-0.18 1.89,-0.53 0.63,-0.35 1.24,-0.81 1.83,-1.38 0.6,-0.57 1.17,-1.22 1.72,-1.95 0.54,-0.74 1.05,-1.47 1.5,-2.22 0.45,-0.74 0.86,-1.46 1.2,-2.16 0.35,-0.7 0.64,-1.3 0.89,-1.8 0.12,-0.29 0.32,-0.52 0.57,-0.68 0.26,-0.15 0.53,-0.23 0.82,-0.23 0.45,0 0.81,0.16 1.1,0.49 0.27,0.34 0.42,0.69 0.42,1.06 0,0.19 -0.04,0.37 -0.12,0.56zm31.03 0.1c-0.06,0.16 -0.24,0.49 -0.51,0.98 -0.26,0.49 -0.62,1.06 -1.04,1.72 -0.42,0.65 -0.93,1.35 -1.52,2.07 -0.58,0.74 -1.22,1.42 -1.92,2.03 -0.69,0.63 -1.43,1.13 -2.24,1.54 -0.79,0.4 -1.62,0.6 -2.48,0.6 -1.38,0 -2.55,-0.24 -3.52,-0.75 -0.95,-0.49 -1.76,-1.05 -2.4,-1.68 -0.42,0.93 -0.94,1.78 -1.55,2.56 -0.62,0.76 -1.3,1.43 -2.05,2 -0.75,0.56 -1.54,1.01 -2.37,1.32 -0.85,0.32 -1.71,0.48 -2.58,0.48 -1.64,0 -3.02,-0.48 -4.16,-1.43 -1.15,-0.97 -2.1,-2.25 -2.87,-3.86 -0.76,-1.61 -1.35,-3.48 -1.77,-5.61 -0.44,-2.12 -0.76,-4.36 -0.98,-6.69 -0.23,-2.35 -0.37,-4.72 -0.42,-7.11 -0.06,-2.4 -0.09,-4.68 -0.09,-6.84 0,-4.11 0.13,-7.69 0.36,-10.7 0.24,-3.03 0.57,-5.6 0.98,-7.71 0.41,-2.11 0.89,-3.83 1.43,-5.16 0.55,-1.31 1.12,-2.33 1.74,-3.07 0.6,-0.73 1.22,-1.22 1.86,-1.5 0.63,-0.25 1.26,-0.39 1.87,-0.39 0.99,0 1.84,0.29 2.61,0.87 0.75,0.59 1.39,1.41 1.91,2.46 0.52,1.05 0.9,2.33 1.17,3.82 0.26,1.48 0.4,3.12 0.4,4.91 0,2.85 -0.3,5.78 -0.92,8.82 -0.61,3.03 -1.4,6.06 -2.38,9.07 -0.97,3.03 -2.06,5.99 -3.25,8.91 -1.2,2.92 -2.39,5.68 -3.56,8.28 0.16,1.31 0.39,2.55 0.72,3.74 0.32,1.18 0.73,2.23 1.23,3.15 0.5,0.91 1.1,1.65 1.8,2.19 0.7,0.55 1.5,0.82 2.4,0.82 0.9,0 1.76,-0.26 2.55,-0.77 0.81,-0.52 1.5,-1.21 2.1,-2.04 0.6,-0.83 1.08,-1.78 1.42,-2.85 0.34,-1.06 0.51,-2.15 0.51,-3.26 0,-0.75 -0.07,-1.5 -0.22,-2.25 -0.15,-0.76 -0.38,-1.44 -0.7,-2.03 -0.3,-0.6 -0.68,-1.09 -1.14,-1.46 -0.45,-0.37 -1.01,-0.56 -1.65,-0.56 -0.5,0 -0.86,0.1 -1.14,0.3 -0.27,0.21 -0.46,0.42 -0.6,0.68 -0.13,0.25 -0.21,0.51 -0.24,0.74 -0.03,0.24 -0.04,0.39 -0.04,0.48 0,0.38 0.08,0.75 0.24,1.12 0.15,0.38 0.47,0.7 0.92,1 0.45,0.32 0.68,0.76 0.68,1.33 0,0.45 -0.16,0.8 -0.47,1.08 -0.3,0.25 -0.64,0.39 -1.02,0.39 -0.53,0 -0.99,-0.16 -1.4,-0.48 -0.43,-0.32 -0.77,-0.73 -1.07,-1.22 -0.28,-0.49 -0.52,-1.03 -0.67,-1.59 -0.16,-0.56 -0.24,-1.09 -0.24,-1.56 0,-0.78 0.14,-1.49 0.39,-2.15 0.28,-0.65 0.65,-1.21 1.12,-1.69 0.47,-0.46 1,-0.82 1.61,-1.08 0.6,-0.25 1.23,-0.38 1.91,-0.38 1.15,0 2.14,0.28 2.99,0.81 0.85,0.53 1.55,1.24 2.11,2.11 0.56,0.89 0.99,1.88 1.26,3 0.26,1.12 0.39,2.25 0.39,3.4 0,0.67 -0.02,1.32 -0.08,1.96 0.11,0.22 0.29,0.49 0.52,0.85 0.25,0.34 0.56,0.68 0.95,0.99 0.41,0.32 0.89,0.6 1.45,0.85 0.56,0.23 1.21,0.35 1.95,0.35 0.64,0 1.31,-0.24 1.98,-0.73 0.68,-0.49 1.34,-1.11 1.96,-1.84 0.63,-0.74 1.2,-1.52 1.74,-2.36 0.54,-0.83 0.98,-1.63 1.32,-2.34 0.14,-0.27 0.33,-0.47 0.56,-0.62 0.24,-0.14 0.5,-0.22 0.8,-0.22 0.45,0 0.82,0.16 1.09,0.48 0.29,0.32 0.43,0.68 0.43,1.09 0,0.15 -0.06,0.37 -0.17,0.63zm-31.03 -5.16c0.92,-2.24 1.83,-4.58 2.77,-7.04 0.93,-2.47 1.77,-4.98 2.52,-7.53 0.75,-2.56 1.37,-5.14 1.85,-7.75 0.47,-2.62 0.72,-5.18 0.72,-7.7 0,-0.97 -0.04,-1.97 -0.14,-3.02 -0.09,-1.05 -0.26,-2.02 -0.5,-2.9 -0.23,-0.88 -0.56,-1.61 -0.98,-2.2 -0.41,-0.59 -0.93,-0.87 -1.57,-0.87 -0.22,0 -0.49,0.13 -0.82,0.42 -0.34,0.27 -0.68,0.76 -1.07,1.47 -0.36,0.71 -0.73,1.69 -1.11,2.94 -0.37,1.25 -0.71,2.85 -1.01,4.77 -0.32,1.94 -0.56,4.26 -0.77,6.97 -0.2,2.72 -0.3,5.91 -0.3,9.59 0,1.21 0.02,2.47 0.04,3.72 0.03,1.27 0.06,2.47 0.1,3.62 0.03,1.14 0.07,2.19 0.12,3.15 0.06,0.97 0.1,1.75 0.15,2.36zm43.09 16.8c0.93,-0.92 1.88,-1.88 2.84,-2.85 0.95,-0.98 1.89,-1.99 2.79,-3.07 0.9,-1.06 1.75,-2.16 2.54,-3.32 0.79,-1.16 1.49,-2.39 2.1,-3.7 0.14,-0.3 0.32,-0.52 0.56,-0.67 0.25,-0.14 0.51,-0.22 0.79,-0.22 0.47,0 0.83,0.17 1.11,0.49 0.28,0.32 0.42,0.67 0.42,1.08 0,0.21 -0.04,0.41 -0.12,0.6 -0.83,1.73 -1.78,3.32 -2.84,4.75 -1.06,1.44 -2.18,2.81 -3.36,4.1 -1.17,1.29 -2.36,2.54 -3.56,3.75 -1.2,1.22 -2.34,2.43 -3.43,3.66 -0.11,1.84 -0.11,3.68 0,5.52 0.11,1.86 0.16,3.82 0.16,5.91 0,1.69 -0.05,3.4 -0.16,5.1 -0.1,1.71 -0.28,3.34 -0.51,4.9 -0.23,1.57 -0.56,3.01 -0.97,4.38 -0.4,1.36 -0.92,2.53 -1.55,3.53 -0.64,1 -1.38,1.79 -2.24,2.36 -0.84,0.57 -1.85,0.86 -3,0.86 -1.88,0 -3.34,-0.65 -4.35,-1.96 -1.01,-1.3 -1.51,-3.13 -1.51,-5.47 0,-1.29 0.13,-2.65 0.41,-4.11 0.28,-1.47 0.68,-2.99 1.18,-4.54 0.51,-1.56 1.11,-3.14 1.82,-4.73 0.71,-1.6 1.47,-3.16 2.3,-4.68 0.82,-1.52 1.71,-2.96 2.63,-4.33 0.93,-1.38 1.89,-2.62 2.84,-3.74 0.04,-1.28 0.1,-2.6 0.15,-3.98 0.06,-1.36 0.11,-2.63 0.18,-3.8 -0.68,1.2 -1.54,2.18 -2.56,2.91 -1.03,0.74 -2.15,1.11 -3.36,1.11 -2.02,0 -3.59,-0.68 -4.73,-2.03 -1.14,-1.35 -1.71,-3.22 -1.71,-5.58 0,-1.73 0.16,-3.3 0.49,-4.72 0.34,-1.42 0.7,-2.65 1.08,-3.67 0.38,-1.02 0.74,-1.8 1.06,-2.35 0.32,-0.54 0.48,-0.8 0.48,-0.77 0.29,-0.45 0.7,-0.69 1.23,-0.69 0.45,0 0.82,0.15 1.1,0.47 0.28,0.3 0.41,0.65 0.41,1.05 0,0.28 -0.07,0.56 -0.23,0.79 0.03,-0.03 -0.11,0.19 -0.38,0.65 -0.29,0.47 -0.59,1.14 -0.92,2.01 -0.34,0.87 -0.64,1.92 -0.92,3.15 -0.28,1.21 -0.43,2.55 -0.43,4.01 0,1.46 0.28,2.59 0.81,3.42 0.53,0.82 1.4,1.23 2.6,1.23 1.52,0 2.9,-1.13 4.12,-3.38 1.23,-2.25 2.27,-5.51 3.11,-9.81 0.06,-0.34 0.22,-0.63 0.49,-0.86 0.26,-0.22 0.59,-0.34 0.96,-0.34 0.39,0 0.75,0.15 1.04,0.45 0.3,0.29 0.43,0.64 0.43,1.08 0,0.07 -0.04,0.54 -0.15,1.42 -0.11,0.86 -0.23,2.02 -0.38,3.45 -0.15,1.43 -0.3,3.11 -0.46,5.02 -0.15,1.89 -0.29,3.95 -0.4,6.16zm-3.19 8.43c-1.19,1.74 -2.28,3.56 -3.27,5.49 -1,1.91 -1.86,3.82 -2.57,5.71 -0.71,1.88 -1.27,3.7 -1.66,5.43 -0.4,1.73 -0.6,3.27 -0.6,4.64 0,1.38 0.23,2.47 0.68,3.26 0.45,0.78 1.16,1.17 2.14,1.17 0.87,0 1.65,-0.44 2.32,-1.29 0.68,-0.88 1.25,-2.1 1.72,-3.7 0.46,-1.6 0.8,-3.53 1.05,-5.81 0.23,-2.28 0.35,-4.83 0.35,-7.65 0,-1.15 -0.01,-2.31 -0.05,-3.48 -0.04,-1.17 -0.08,-2.43 -0.11,-3.77z"/>
  </g>
 </g>
</symbol>
<symbol id="inst" viewBox="0 0 34 34" width="34" height="34">
   
 <g id="&#x421;&#x43B;&#x43E;&#x439;_x0020_1">
  <metadata id="CorelCorpID_0Corel-Layer"/>
  <g id="_2564877041248">
   <path fill="white" d="M23.15 1.18l-12.3 0c0,0 0,0 0,0 -5.34,0 -9.67,4.33 -9.67,9.67 0,0 0,0 0,0l0 12.3c0,5.34 4.33,9.67 9.67,9.67 0,0 0,0 0,0l12.3 0c0,0 0,0 0,0 5.34,0 9.67,-4.33 9.67,-9.67 0,0 0,0 0,0l0 -12.3c0,0 0,0 0,0 0,-5.34 -4.33,-9.67 -9.67,-9.67 0,0 0,0 0,0l0 0z"/>
   <g>
    <path fill="#FF78B2" d="M23.61 2.83c4.17,0.01 7.55,3.39 7.56,7.56l0 13.22c-0.01,4.17 -3.39,7.55 -7.56,7.56l-13.22 0c-4.17,-0.01 -7.55,-3.39 -7.56,-7.56l0 -13.22c0.01,-4.17 3.39,-7.55 7.56,-7.56l13.22 0 0 0zm0 -2.83l-13.22 0c-5.74,0 -10.39,4.65 -10.39,10.39l0 13.22c0,5.74 4.65,10.39 10.39,10.39l13.22 0c5.74,0 10.39,-4.65 10.39,-10.39l0 -13.22c0,-5.74 -4.65,-10.39 -10.39,-10.39l0 0z"/>
   </g>
   <g>
    <path fill="#FF78B2" d="M17 11.33c3.13,0 5.67,2.54 5.67,5.67 0,3.13 -2.54,5.67 -5.67,5.67 -3.13,0 -5.67,-2.54 -5.67,-5.67 0.01,-3.13 2.54,-5.66 5.67,-5.67l0 0zm0 -2.83c-4.69,0 -8.5,3.81 -8.5,8.5 0,4.69 3.81,8.5 8.5,8.5 4.69,0 8.5,-3.81 8.5,-8.5 0,-4.69 -3.81,-8.5 -8.5,-8.5z"/>
   </g>
   <circle fill="#FF78B2" cx="25.88" cy="8.12" r="1.89"/>
  </g>
 </g>
</symbol>
<symbol id="telegram" viewBox="0 0 34 34" width="34" height="34">
   
 <g id="&#x421;&#x43B;&#x43E;&#x439;_x0020_1">
  <metadata id="CorelCorpID_0Corel-Layer"/>
  <g id="_2564888810400">
   <path fill="#0087CB" d="M16.8 0c4.63,0.03 8.58,1.55 11.88,4.66 3.29,3.11 5.08,6.96 5.3,11.49 0.23,4.84 -1.32,9.07 -4.68,12.58 -3.3,3.44 -7.37,5.22 -12.15,5.27 -4.45,0.05 -8.36,-1.45 -11.63,-4.46 -3.85,-3.56 -5.7,-8.02 -5.51,-13.27 0.16,-4.39 1.86,-8.17 4.96,-11.27 3.28,-3.28 7.29,-4.92 11.83,-5z"/>
   <path fill="#FCFDFE" d="M11.77 19.29c-0.93,-0.28 -1.86,-0.57 -2.79,-0.85 -0.45,-0.15 -0.9,-0.29 -1.36,-0.43 -0.17,-0.06 -0.33,-0.11 -0.47,-0.22 -0.27,-0.2 -0.28,-0.44 -0.06,-0.69 0.15,-0.17 0.34,-0.28 0.55,-0.37 0.55,-0.21 1.1,-0.43 1.64,-0.65 3.78,-1.45 7.57,-2.92 11.35,-4.37 1.21,-0.47 2.4,-0.93 3.6,-1.39 0.16,-0.07 0.33,-0.11 0.51,-0.08 0.36,0.06 0.63,0.35 0.67,0.73 0.02,0.21 0.01,0.41 -0.03,0.62 -0.46,2.18 -0.93,4.36 -1.39,6.53 -0.38,1.8 -0.77,3.59 -1.14,5.4 -0.09,0.4 -0.17,0.81 -0.26,1.22 -0.04,0.2 -0.09,0.38 -0.19,0.56 -0.19,0.35 -0.49,0.49 -0.88,0.41 -0.23,-0.05 -0.44,-0.15 -0.63,-0.29 -1.3,-0.97 -2.61,-1.94 -3.92,-2.9 -0.06,-0.05 -0.12,-0.09 -0.18,-0.13 -0.23,-0.06 -0.39,-0.23 -0.57,-0.36 -0.62,-0.46 -1.25,-0.93 -1.87,-1.38 -0.05,-0.04 -0.09,-0.08 -0.13,-0.13 -0.06,-0.09 0,-0.15 0.06,-0.2 0.85,-0.76 1.69,-1.54 2.54,-2.29 0.61,-0.56 1.23,-1.12 1.85,-1.67 0.61,-0.56 1.23,-1.11 1.84,-1.66 0.48,-0.43 0.97,-0.86 1.44,-1.29 0.04,-0.04 0.07,-0.08 0.11,-0.12 0.03,-0.03 0.07,-0.07 0.05,-0.12 -0.02,-0.06 -0.08,-0.06 -0.12,-0.06 -0.17,-0.01 -0.32,0.05 -0.46,0.14 -0.52,0.31 -1.02,0.64 -1.53,0.96 -1.55,0.97 -3.11,1.96 -4.66,2.93 -1.06,0.67 -2.13,1.34 -3.2,2.02 -0.12,0.07 -0.21,0.19 -0.37,0.13z"/>
   <path fill="#CCD9E9" d="M11.77 19.29c0.26,-0.1 0.47,-0.27 0.71,-0.41 0.68,-0.43 1.36,-0.85 2.04,-1.29 0.48,-0.3 0.96,-0.61 1.44,-0.91 0.79,-0.5 1.59,-1.01 2.4,-1.51 0.55,-0.35 1.11,-0.7 1.68,-1.06 0.49,-0.32 0.98,-0.63 1.47,-0.94 0.16,-0.09 0.33,-0.15 0.52,-0.13 0.06,0.01 0.12,0.01 0.14,0.06 0.02,0.06 0.01,0.12 -0.04,0.17 -0.11,0.12 -0.22,0.24 -0.35,0.34 -0.24,0.19 -0.45,0.41 -0.67,0.61 -0.37,0.31 -0.71,0.65 -1.08,0.96 -0.15,0.14 -0.29,0.28 -0.44,0.41 -0.22,0.18 -0.43,0.4 -0.64,0.59 -0.32,0.29 -0.65,0.57 -0.97,0.86 -0.14,0.13 -0.29,0.26 -0.43,0.39 -0.35,0.33 -0.71,0.65 -1.06,0.98 -0.43,0.38 -0.86,0.76 -1.28,1.16 -0.3,0.28 -0.62,0.55 -0.93,0.82 -0.05,0.04 -0.05,0.08 -0.02,0.12 -0.07,1.07 -0.15,2.14 -0.21,3.21 -0.02,0.28 -0.06,0.55 -0.05,0.84 0,0.08 0,0.16 -0.07,0.22 -0.05,0.02 -0.12,0.02 -0.17,0.02 -0.17,-0.01 -0.3,-0.09 -0.35,-0.25 -0.04,-0.17 -0.1,-0.33 -0.15,-0.5 -0.46,-1.52 -0.92,-3.05 -1.39,-4.58 -0.04,-0.06 -0.07,-0.12 -0.1,-0.18z"/>
   <path fill="#B1C8DB" d="M13.91 24.78c-0.03,-0.37 0.03,-0.74 0.04,-1.1 0.02,-0.4 0.06,-0.79 0.08,-1.19 0.03,-0.41 0.06,-0.81 0.08,-1.21 0.01,-0.21 0.03,-0.42 0.03,-0.61 0,-0.07 0.02,-0.12 0.09,-0.16 0.76,0.57 1.53,1.13 2.28,1.7 0.09,0.06 0.18,0.11 0.25,0.19 -0.71,0.69 -1.43,1.38 -2.14,2.07 -0.18,0.19 -0.41,0.34 -0.71,0.31z"/>
  </g>
 </g>
</symbol>
<symbol id="whatsapp" viewBox="0 0 34 34" width="34" height="34">
   
 <g id="&#x421;&#x43B;&#x43E;&#x439;_x0020_1">
  <metadata id="CorelCorpID_0Corel-Layer"/>
  <g id="_2564888828128">
   <circle fill="#00A500" cx="17" cy="17" r="17"/>
   <g>
    <path fill="white" d="M17 9.55l0 0 0 0c-4.11,0 -7.45,3.34 -7.45,7.45 0,1.63 0.52,3.14 1.42,4.37l-0.93 2.77 2.86 -0.92c1.18,0.78 2.59,1.23 4.1,1.23 4.11,0 7.45,-3.34 7.45,-7.45 0,-4.11 -3.34,-7.45 -7.45,-7.45zm4.34 10.52c-0.18,0.51 -0.9,0.93 -1.47,1.05 -0.38,0.09 -0.89,0.15 -2.61,-0.56 -2.19,-0.9 -3.6,-3.13 -3.71,-3.28 -0.1,-0.14 -0.88,-1.17 -0.88,-2.24 0,-1.07 0.54,-1.59 0.76,-1.82 0.18,-0.18 0.48,-0.26 0.76,-0.26 0.1,0 0.18,0 0.25,0 0.22,0.01 0.33,0.03 0.48,0.37 0.18,0.44 0.62,1.5 0.67,1.61 0.05,0.11 0.1,0.26 0.03,0.41 -0.07,0.15 -0.13,0.21 -0.24,0.34 -0.11,0.13 -0.22,0.22 -0.33,0.36 -0.1,0.12 -0.21,0.24 -0.08,0.46 0.12,0.22 0.56,0.93 1.2,1.51 0.84,0.74 1.51,0.97 1.75,1.07 0.18,0.08 0.4,0.06 0.53,-0.08 0.16,-0.18 0.37,-0.48 0.58,-0.77 0.15,-0.21 0.34,-0.24 0.54,-0.16 0.2,0.07 1.26,0.59 1.48,0.7 0.22,0.11 0.36,0.16 0.42,0.26 0.05,0.09 0.05,0.52 -0.13,1.03z"/>
   </g>
  </g>
 </g>
</symbol>
</symbol><symbol id="vk-icon" viewBox="0 0 26 15"><path fill="#FFF" d="M16.138 11.51c.956-.309 2.18 2.04 3.483 2.939.978.681 1.727.534 1.727.534l3.473-.05s1.815-.112.957-1.554c-.071-.12-.503-1.069-2.585-3.022-2.177-2.043-1.882-1.712.739-5.244 1.597-2.153 2.236-3.468 2.036-4.028-.192-.539-1.365-.399-1.365-.399L20.69.713c-.381.001-.704.119-.851.515-.003.004-.621 1.666-1.445 3.079-1.741 2.989-2.436 3.148-2.724 2.961-.661-.433-.494-1.737-.494-2.664 0-2.897.432-4.105-.846-4.417-.427-.104-.739-.172-1.828-.182-1.392-.021-2.574 0-3.244.329-.445.223-.786.712-.579.74.26.035.843.16 1.155.586.401.552.389 1.789.389 1.789s.229 3.411-.54 3.834c-.528.29-1.25-.302-2.803-3.016-.793-1.388-1.392-2.922-1.392-2.922s-.116-.285-.326-.441c-.25-.185-.6-.244-.6-.244L.848.684S.29.7.085.946c-.182.218-.015.668-.015.668s2.909 6.881 6.203 10.347c3.02 3.182 6.452 2.971 6.452 2.971h1.555s.469-.054.709-.312c.224-.24.214-.691.214-.691s-.031-2.109.935-2.419z"/></symbol></svg>