<?xml version="1.0" encoding="utf-8"?>
<!-- Generator: Adobe Illustrator 15.1.0, SVG Export Plug-In . SVG Version: 6.00 Build 0)  -->
<!DOCTYPE svg PUBLIC "-//W3C//DTD SVG 1.1//EN" "http://www.w3.org/Graphics/SVG/1.1/DTD/svg11.dtd">
<svg version="1.1" id="Слой_1" xmlns="http://www.w3.org/2000/svg" xmlns:xlink="http://www.w3.org/1999/xlink" x="0px" y="0px"
	 width="64px" height="64px" viewBox="0 0 64 64" enable-background="new 0 0 64 64" xml:space="preserve">
<g id="Слой_x0020_1">
	<g id="_2134349546176">
		<path fill="#FFFFFF" d="M25.42,52.359c-3.3,0-6,2.621-6,5.82c0,3.2,2.7,5.82,6,5.82c3.31,0,6.01-2.62,6.01-5.82
			C31.43,54.98,28.73,52.359,25.42,52.359z M25.42,61.09c-1.65,0-3-1.311-3-2.91s1.35-2.91,3-2.91s3,1.311,3,2.91
			S27.07,61.09,25.42,61.09z"/>
		<path fill="#FFFFFF" d="M52.45,52.359c-3.3,0-6.011,2.621-6.011,5.82c0,3.2,2.711,5.82,6.011,5.82s6.01-2.62,6.01-5.82
			C58.46,54.98,55.75,52.359,52.45,52.359z M52.45,61.09c-1.65,0-3-1.311-3-2.91s1.35-2.91,3-2.91c1.649,0,3,1.311,3,2.91
			S54.1,61.09,52.45,61.09z"/>
		<path fill="#FFFFFF" d="M62.811,10.33c-0.9-1.02-2.101-1.6-3.451-1.6H16.11l-0.9-5.09C14.91,1.45,13.11,0,10.86,0H-0.1v2.91h10.96
			c0.75,0,1.35,0.58,1.5,1.31l6.76,41.6c0.45,2.18,2.25,3.63,4.5,3.63h33.33v-2.9H23.62c-0.75,0-1.35-0.59-1.5-1.31l-0.75-4.51
			h34.38c2.25,0,4.061-1.461,4.51-3.78l3.6-23.28C64.01,12.51,63.71,11.34,62.811,10.33z M37.43,26.18v11.64h-6.15l-1.8-11.64H37.43
			z M29.03,23.27l-1.81-11.63H37.43v11.63H29.03z M40.439,26.18H48.4L46.59,37.82h-6.15V26.18z M40.439,23.27V11.64H50.65
			L48.85,23.27H40.439z M24.07,11.64l1.8,11.63h-7.35l-1.96-11.63H24.07z M18.97,26.18h7.35l1.8,11.64h-7.2L18.97,26.18z
			 M57.25,36.51c-0.15,0.73-0.75,1.311-1.5,1.311h-6l1.8-11.64h7.36L57.25,36.51z M60.859,13.38l-1.5,9.89H52l1.8-11.63h5.56
			c0.451,0,0.9,0.14,1.201,0.58C60.71,12.36,61.01,12.8,60.859,13.38z"/>
	</g>
</g>
</svg>
